# xmcd
#
# Track frame offsets:
#	150
#	20105
#	39983
#
# Disc length: 753 seconds
#
# Revision: 1
# Processed by: cddbd v1.4PL0 Copyright (c) Steve Scherf et al.
# Submitted via: EasyCDDAExtractor 5.0.6
#
DISCID=1d02ef03
DTITLE=Elisa - Luce (Tramonti a Nord Est) MiniCD
DYEAR=2001
DGENRE=Blues
TTITLE0=Luce (Tramonti a Nord Est)
TTITLE1=Come Speak to Me
TTITLE2=Asile's World (Bedroom Rockers RMX)
EXTD=
EXTT0=
EXTT1=
EXTT2=
PLAYORDER=
